<svg width="20" height="20" viewBox="0 0 20 20" fill="none" xmlns="http://www.w3.org/2000/svg">
<path d="M8.00202 12L10.002 10M10.002 10L12.002 8.00001M10.002 10L8.00202 8.00001M10.002 10L12.002 12M10.002 19C8.42603 19.0025 6.87726 18.5893 5.51202 17.802L5.50802 17.799C5.38002 17.726 5.31602 17.689 5.25502 17.672C5.2008 17.6565 5.14425 17.6507 5.08802 17.655C5.02402 17.659 4.95802 17.681 4.82602 17.725L2.52002 18.494L2.51402 18.496C2.02902 18.658 1.78702 18.738 1.62502 18.681C1.555 18.656 1.4914 18.6158 1.43883 18.5632C1.38626 18.5106 1.34602 18.447 1.32102 18.377C1.26402 18.215 1.34502 17.972 1.50702 17.485V17.482L2.27702 15.176C2.32102 15.044 2.34202 14.978 2.34702 14.915C2.35096 14.8585 2.34521 14.8016 2.33002 14.747C2.29751 14.6584 2.2549 14.5739 2.20302 14.495L2.20002 14.49C1.21191 12.7735 0.817627 10.7789 1.0783 8.81551C1.33897 6.85211 2.24004 5.02953 3.64182 3.63029C5.04361 2.23104 6.86782 1.33328 8.83168 1.07617C10.7956 0.819054 12.7894 1.21695 14.5041 2.20817C16.2189 3.19939 17.5588 4.72858 18.3161 6.5587C19.0734 8.38882 19.2059 10.4177 18.693 12.3307C18.1801 14.2438 17.0504 15.9342 15.4791 17.14C13.9078 18.3458 11.9826 18.9996 10.002 19Z" stroke="#F24E1E" stroke-width="2" stroke-linecap="round" stroke-linejoin="round"/>
</svg>
