<svg width="20" height="17" viewBox="0 0 20 17" fill="none" xmlns="http://www.w3.org/2000/svg">
<path fill-rule="evenodd" clip-rule="evenodd" d="M18.375 4.17351C18.538 3.77351 19.063 2.18651 18.212 0.0365116C18.212 0.0365116 16.9 -0.376489 13.912 1.66151C12.662 1.31151 11.325 1.26151 10 1.26151C8.675 1.26151 7.338 1.31151 6.088 1.66151C3.1 -0.388488 1.788 0.0365116 1.788 0.0365116C0.938 2.18651 1.463 3.77351 1.625 4.17351C0.612 5.26151 0 6.66151 0 8.36151C0 14.7985 4.163 16.2485 9.975 16.2485C15.788 16.2485 20 14.7985 20 8.36151C20 6.66151 19.387 5.26151 18.375 4.17351ZM10 15.0235C5.875 15.0235 2.525 14.8365 2.525 10.8365C2.525 9.88651 3 8.98651 3.8 8.24851C5.138 7.02351 7.425 7.67351 10 7.67351C12.588 7.67351 14.85 7.02351 16.2 8.24851C17.013 8.98651 17.475 9.87351 17.475 10.8365C17.475 14.8235 14.125 15.0235 10 15.0235ZM6.863 8.76151C6.038 8.76151 5.363 9.76151 5.363 10.9865C5.363 12.2115 6.037 13.2235 6.863 13.2235C7.688 13.2235 8.363 12.2235 8.363 10.9865C8.363 9.74851 7.688 8.76151 6.863 8.76151ZM13.138 8.76151C12.313 8.76151 11.638 9.74851 11.638 10.9865C11.638 12.2235 12.313 13.2235 13.138 13.2235C13.963 13.2235 14.638 12.2235 14.638 10.9865C14.638 9.74851 13.975 8.76151 13.138 8.76151Z" fill="black"/>
</svg>
