<svg width="22" height="22" viewBox="0 0 22 22" fill="none" xmlns="http://www.w3.org/2000/svg">
<path fill-rule="evenodd" clip-rule="evenodd" d="M21.2198 16.0329L17.2408 12.9529C17.0486 12.8046 16.809 12.7314 16.5667 12.747C16.3245 12.7627 16.0963 12.8661 15.9248 13.0379L13.8128 15.1509C13.6555 15.3098 13.4491 15.4109 13.2272 15.438C13.0052 15.465 12.7806 15.4163 12.5898 15.2999C11.9098 14.8829 10.7718 14.0749 9.34778 12.6499C7.92378 11.2269 7.11578 10.0879 6.69878 9.40886C6.58214 9.21816 6.53348 8.99359 6.56072 8.77171C6.58795 8.54983 6.68948 8.3437 6.84878 8.18686L8.96078 6.07386C9.13281 5.90246 9.23628 5.67411 9.25175 5.43175C9.26722 5.1894 9.19362 4.94975 9.04478 4.75786L5.96578 0.777862C5.26578 -0.125138 3.94578 -0.268138 3.08578 0.486862C1.95278 1.48086 0.591777 2.96986 0.195777 4.64086C-0.521223 7.65086 0.611777 11.4279 5.59178 16.4079C10.5718 21.3869 14.3488 22.5209 17.3578 21.8049C19.0288 21.4069 20.5188 20.0449 21.5128 18.9129C22.2668 18.0529 22.1238 16.7329 21.2198 16.0329Z" fill="white"/>
</svg>
