<svg width="19" height="23" viewBox="0 0 19 23" fill="none" xmlns="http://www.w3.org/2000/svg">
<path fill-rule="evenodd" clip-rule="evenodd" d="M9.22673 11.9418C8.86601 11.9487 8.50752 11.8836 8.17224 11.7504C7.83696 11.6171 7.53161 11.4184 7.27406 11.1657C7.0165 10.913 6.81191 10.6116 6.67224 10.2789C6.53257 9.94624 6.46064 9.58907 6.46064 9.22828C6.46064 8.86749 6.53257 8.51032 6.67224 8.17766C6.81191 7.84499 7.0165 7.54352 7.27406 7.29086C7.53161 7.0382 7.83696 6.83943 8.17224 6.70618C8.50752 6.57292 8.86601 6.50785 9.22673 6.51478C9.93737 6.52842 10.6143 6.8203 11.1121 7.3277C11.6098 7.83509 11.8886 8.5175 11.8886 9.22828C11.8886 9.93905 11.6098 10.6215 11.1121 11.1289C10.6143 11.6363 9.93737 11.9281 9.22673 11.9418M7.10273 0.236779C2.83273 1.18978 -0.16127 5.20878 0.00673028 9.58078C0.13873 13.0148 2.24573 16.0868 8.51473 22.1138C8.91073 22.4938 9.54473 22.4958 9.94173 22.1148C16.4257 15.8818 18.4577 12.8098 18.4577 9.22778C18.4577 3.43778 13.1247 -1.10722 7.10273 0.237779" fill="white"/>
</svg>
