<svg width="22" height="22" viewBox="0 0 22 22" fill="none" xmlns="http://www.w3.org/2000/svg">
<path fill-rule="evenodd" clip-rule="evenodd" d="M19.967 11.362C19.6536 11.3074 19.3312 11.3796 19.0709 11.5626C18.8107 11.7456 18.6337 12.0246 18.579 12.338C18.2677 14.1268 17.3341 15.748 15.9432 16.915C14.5523 18.0821 12.7937 18.72 10.978 18.716C6.72404 18.716 3.26304 15.255 3.26304 11C3.26304 6.74602 6.72404 3.28502 10.978 3.28502C12.912 3.28502 14.731 3.99902 16.153 5.28902L15.161 6.28102C15.0313 6.4103 14.9399 6.57306 14.8971 6.75117C14.8543 6.92929 14.8618 7.11579 14.9187 7.28991C14.9756 7.46404 15.0797 7.61896 15.2194 7.73744C15.3591 7.85592 15.529 7.93332 15.71 7.96102L19.922 8.61102C20.0759 8.63474 20.2332 8.62183 20.3812 8.57335C20.5291 8.52487 20.6635 8.44218 20.7735 8.33199C20.8835 8.2218 20.966 8.08723 21.0142 7.9392C21.0624 7.79117 21.075 7.63385 21.051 7.48002L20.402 3.26902C20.3742 3.08806 20.2967 2.91837 20.1782 2.77876C20.0598 2.63915 19.9049 2.5351 19.7309 2.47813C19.5569 2.42116 19.3705 2.41352 19.1924 2.45604C19.0144 2.49856 18.8515 2.58959 18.722 2.71902L17.85 3.59202C15.9863 1.84963 13.5294 0.881801 10.978 0.885018C5.40104 0.885018 0.863037 5.42302 0.863037 11C0.863037 16.578 5.40104 21.115 10.978 21.115C15.906 21.115 20.096 17.597 20.943 12.75C20.9976 12.4365 20.9255 12.1142 20.7424 11.8539C20.5594 11.5936 20.2805 11.4167 19.967 11.362" fill="white"/>
</svg>
