<svg width="17" height="21" viewBox="0 0 17 21" fill="none" xmlns="http://www.w3.org/2000/svg">
<path fill-rule="evenodd" clip-rule="evenodd" d="M15.714 11.088L2.046 19.993C1.89509 20.0914 1.72041 20.1471 1.54042 20.1544C1.36044 20.1617 1.18183 20.1202 1.02346 20.0344C0.865095 19.9485 0.732858 19.8215 0.640719 19.6667C0.54858 19.5119 0.499961 19.3351 0.5 19.155V1.345C0.499961 1.16487 0.54858 0.98807 0.640719 0.833284C0.732858 0.678499 0.865095 0.551476 1.02346 0.465635C1.18183 0.379794 1.36044 0.338324 1.54042 0.345605C1.72041 0.352887 1.89509 0.40865 2.046 0.507003L15.714 9.412C15.8535 9.50283 15.9681 9.62705 16.0474 9.77339C16.1268 9.91972 16.1683 10.0835 16.1683 10.25C16.1683 10.4165 16.1268 10.5803 16.0474 10.7266C15.9681 10.873 15.8535 10.9972 15.714 11.088V11.088Z" fill="white"/>
</svg>
