<svg width="12" height="18" viewBox="0 0 12 18" fill="none" xmlns="http://www.w3.org/2000/svg">
<path fill-rule="evenodd" clip-rule="evenodd" d="M3.12391 2.06225L3.12129 13.9422C3.12111 14.7622 2.56097 15.4271 1.86897 15.427C1.17697 15.4268 0.616113 14.7617 0.616293 13.9417L0.618907 2.0617C0.619087 1.2417 1.18023 0.576821 1.87223 0.576973C2.56323 0.577125 3.12509 1.24225 3.12491 2.06225M9.38891 2.06363L9.38629 13.9436C9.38611 14.7636 8.82497 15.4285 8.13297 15.4284C7.44197 15.4282 6.88011 14.7631 6.88029 13.9431L6.88291 2.06307C6.88309 1.24307 7.44523 0.578199 8.13623 0.578351C8.82823 0.578503 9.38909 1.24363 9.38891 2.06363Z" fill="white"/>
</svg>
