<svg width="24" height="24" viewBox="0 0 24 24" fill="none" xmlns="http://www.w3.org/2000/svg">
<path fill-rule="evenodd" clip-rule="evenodd" d="M12.3349 5.45402L3.27288 14.516L2.03688 19.126L1.22388 22.163C1.2013 22.2479 1.20142 22.3372 1.22421 22.4219C1.24701 22.5067 1.29169 22.584 1.35377 22.6461C1.41586 22.7082 1.49317 22.7529 1.57796 22.7757C1.66275 22.7985 1.75204 22.7986 1.83688 22.776L4.87189 21.962L9.48288 20.726H9.48388L18.5459 11.664L12.3359 5.45402H12.3349ZM22.2929 6.50402L17.4969 1.70702C17.4041 1.61407 17.2939 1.54034 17.1726 1.49003C17.0513 1.43971 16.9212 1.41382 16.7899 1.41382C16.6586 1.41382 16.5285 1.43971 16.4072 1.49003C16.2859 1.54034 16.1757 1.61407 16.0829 1.70702L13.6079 4.18102L19.8189 10.392L22.2929 7.91702C22.3858 7.82423 22.4596 7.71403 22.5099 7.59271C22.5602 7.4714 22.5861 7.34135 22.5861 7.21002C22.5861 7.07869 22.5602 6.94864 22.5099 6.82733C22.4596 6.70601 22.3858 6.59581 22.2929 6.50302" fill="black"/>
</svg>
