<svg width="20" height="20" viewBox="0 0 20 20" fill="none" xmlns="http://www.w3.org/2000/svg">
<path fill-rule="evenodd" clip-rule="evenodd" d="M9.992 15.892C7.77 15.892 4.492 15.58 4.492 14.408C4.492 13.236 6.032 10.716 9.992 10.716C13.952 10.716 15.492 13.236 15.492 14.408C15.492 15.58 12.214 15.892 9.992 15.892M9.992 4.116C10.7213 4.116 11.4208 4.40573 11.9365 4.92146C12.4523 5.43718 12.742 6.13665 12.742 6.866C12.742 7.59535 12.4523 8.29482 11.9365 8.81054C11.4208 9.32627 10.7213 9.616 9.992 9.616C9.26265 9.616 8.56318 9.32627 8.04746 8.81054C7.53173 8.29482 7.242 7.59535 7.242 6.866C7.242 6.13665 7.53173 5.43718 8.04746 4.92146C8.56318 4.40573 9.26265 4.116 9.992 4.116M17.5 0.5H2.5C1.96957 0.5 1.46086 0.710714 1.08579 1.08579C0.710714 1.46086 0.5 1.96957 0.5 2.5V17.5C0.5 18.0304 0.710714 18.5391 1.08579 18.9142C1.46086 19.2893 1.96957 19.5 2.5 19.5H17.5C18.0304 19.5 18.5391 19.2893 18.9142 18.9142C19.2893 18.5391 19.5 18.0304 19.5 17.5V2.5C19.5 1.96957 19.2893 1.46086 18.9142 1.08579C18.5391 0.710714 18.0304 0.5 17.5 0.5Z" fill="black"/>
</svg>
